<svg width="512" height="512" viewBox="0 0 512 512" style="color:#D69358" xmlns="http://www.w3.org/2000/svg" class="h-full w-full"><rect width="462" height="462" x="25" y="25" rx="256" fill="transparent" stroke="transparent" stroke-width="50" stroke-opacity="100%" paint-order="stroke"></rect><svg width="512px" height="512px" viewBox="0 0 512 512" fill="#D69358" x="0" y="0" role="img" style="display:inline-block;vertical-align:middle" xmlns="http://www.w3.org/2000/svg"><g fill="#D69358"><path fill="currentColor" d="M48 32C21.5 32 0 53.5 0 80v352c0 26.5 21.5 48 48 48h352c26.5 0 48-21.5 48-48V80c0-26.5-21.5-48-48-48H48zm176 64c13.02 9.05 130.934 120.222 137.143 131.145v60.183c-8.605.21-122.971-119.626-137.143-125.318c-14.172 5.692-128.538 125.529-137.143 125.318v-60.183C93.066 216.222 210.98 105.049 224 96zm0 128.672c13.02 9.05 130.934 120.222 137.143 131.144V416c-8.605.21-122.971-119.627-137.143-125.32C209.828 296.373 95.462 416.21 86.857 416v-60.184C93.066 344.894 210.98 233.721 224 224.672z"/></g></svg></svg>