<svg width="512" height="512" viewBox="0 0 512 512" style="color:#D69358" xmlns="http://www.w3.org/2000/svg" class="h-full w-full"><rect width="462" height="462" x="25" y="25" rx="256" fill="transparent" stroke="transparent" stroke-width="50" stroke-opacity="100%" paint-order="stroke"></rect><svg width="512px" height="512px" viewBox="0 0 1024 1024" fill="#D69358" x="0" y="0" role="img" style="display:inline-block;vertical-align:middle" xmlns="http://www.w3.org/2000/svg"><g fill="#D69358"><path fill="currentColor" d="M946.5 505L560.1 118.8l-25.9-25.9a31.5 31.5 0 0 0-44.4 0L77.5 505a63.9 63.9 0 0 0-18.8 46c.4 35.2 29.7 63.3 64.9 63.3h42.5V940h691.8V614.3h43.4c17.1 0 33.2-6.7 45.3-18.8a63.6 63.6 0 0 0 18.7-45.3c0-17-6.7-33.1-18.8-45.2zM568 868H456V664h112v204zm217.9-325.7V868H632V640c0-22.1-17.9-40-40-40H432c-22.1 0-40 17.9-40 40v228H238.1V542.3h-96l370-369.7l23.1 23.1L882 542.3h-96.1z"/></g></svg></svg>